<svg xmlns="http://www.w3.org/2000/svg" width="48" height="48" viewBox="0 0 512 512"><path fill="#00b1ff" d="M508.333 32.666C508.333 16.35 494.984 3 478.668 3H29.032C14.348 3 2.333 15.015 2.333 29.699v452.602C2.333 496.985 14.348 509 29.032 509h449.635c16.316 0 29.666-13.35 29.666-29.666z"/><path fill="#0096d1" d="M478.668 488.915H29.032c-14.684 0-26.699-12.015-26.699-26.699v20.085C2.333 496.985 14.348 509 29.032 509h449.635c16.316 0 29.666-13.35 29.666-29.666v-20.085c0 16.316-13.349 29.666-29.665 29.666"/><path fill="#fff" d="M208.528 421.378H158.42c-7.953 0-14.4-6.447-14.4-14.4V108.333c0-7.953 6.447-14.4 14.4-14.4h92.386c85.051 0 137.026 34.965 137.026 106.786c0 76.074-53.866 111.984-129.938 111.984h-20.566c-7.953 0-14.4 6.447-14.4 14.4v79.876c0 7.952-6.447 14.399-14.4 14.399m42.75-165.377c34.965 0 55.755-14.647 55.755-55.283c0-34.493-19.372-51.03-57.173-51.03h-12.533c-7.953 0-14.4 6.447-14.4 14.4v77.513c0 7.953 6.447 14.4 14.4 14.4z"/></svg>